PathFileType	4	(X/Y/Z)	Kaydara	
DataRate	CameraRate	NumFrames	NumMarkers	Units	OrigDataRate	OrigDataStartFrame	OrigNumFrames	
60.00	60.00	5	74	mm	60.00	1584	181	
Frame#	Time	Z_lasi			Z_rasi			Z_rpsi			Z_lpsi			Z_fneck			Z_bneck			Z_fhead			Z_rhead			Z_lhead			Z_rshld			Z_relbtop			Z_relbext			Z_relblow			Z_rwrext			Z_rwrtop			Z_rwrlow			Z_lshld			Z_lelbext			Z_lelblow			Z_lelbtop			Z_lwrext			Z_lwrtop			Z_lwrlow			Z_rtopleg			Z_ltopleg			Z_rkneefr			Z_rkneebk			Z_rkneeis			Z_lkneefr			Z_lknssbk			Z_lkneeis			Z_rankfr			Z_rankis			Z_rankbk			Z_lankfr			Z_lankbk			Z_lankis			A_lasi			A_rasi			A_rpsi			A_lpsi			A_fneck			A_bneck			A_fhead			A_rhead			A_lhead			A_rshld			A_relbtop			A_relbext			A_relblow			A_rwrext			A_rwrtop			A_rwrlow			A_lshld			A_lelbext			A_lelblow			A_lelbtop			A_lwrext			A_lwrtop			A_lwrlow			A_rtopleg			A_ltopleg			A_rkneefr			A_rkneebk			A_rkneeis			A_lkneefr			A_lknssbk			A_lkneeis			A_rankfr			A_rankis			A_rankbk			A_lankfr			A_lankbk			A_lankis			
		X1	Y1	Z1	X2	Y2	Z2	X3	Y3	Z3	X4	Y4	Z4	X5	Y5	Z5	X6	Y6	Z6	X7	Y7	Z7	X8	Y8	Z8	X9	Y9	Z9	X10	Y10	Z10	X11	Y11	Z11	X12	Y12	Z12	X13	Y13	Z13	X14	Y14	Z14	X15	Y15	Z15	X16	Y16	Z16	X17	Y17	Z17	X18	Y18	Z18	X19	Y19	Z19	X20	Y20	Z20	X21	Y21	Z21	X22	Y22	Z22	X23	Y23	Z23	X24	Y24	Z24	X25	Y25	Z25	X26	Y26	Z26	X27	Y27	Z27	X28	Y28	Z28	X29	Y29	Z29	X30	Y30	Z30	X31	Y31	Z31	X32	Y32	Z32	X33	Y33	Z33	X34	Y34	Z34	X35	Y35	Z35	X36	Y36	Z36	X37	Y37	Z37	X38	Y38	Z38	X39	Y39	Z39	X40	Y40	Z40	X41	Y41	Z41	X42	Y42	Z42	X43	Y43	Z43	X44	Y44	Z44	X45	Y45	Z45	X46	Y46	Z46	X47	Y47	Z47	X48	Y48	Z48	X49	Y49	Z49	X50	Y50	Z50	X51	Y51	Z51	X52	Y52	Z52	X53	Y53	Z53	X54	Y54	Z54	X55	Y55	Z55	X56	Y56	Z56	X57	Y57	Z57	X58	Y58	Z58	X59	Y59	Z59	X60	Y60	Z60	X61	Y61	Z61	X62	Y62	Z62	X63	Y63	Z63	X64	Y64	Z64	X65	Y65	Z65	X66	Y66	Z66	X67	Y67	Z67	X68	Y68	Z68	X69	Y69	Z69	X70	Y70	Z70	X71	Y71	Z71	X72	Y72	Z72	X73	Y73	Z73	X74	Y74	Z74	

114	26.383	-267.69939	1069.85527	514.04171	-307.81580	1072.38586	309.44775	-130.79765	1109.18198	240.68302	-77.23025	1098.52028	481.18523	-261.64612	1451.19385	390.03197	-146.39736	1501.82632	388.00873	-305.87086	1678.55911	375.56499	-172.16673	1630.73441	284.46495	-151.11907	1634.09393	431.93825	-199.64663	1423.46512	178.68130	-153.98442	1104.38263	102.76374	-132.38826	1087.52205	158.34306	-222.92904	1113.26645	135.43268	-246.04923	874.78493	99.62027	-281.82367	887.62787	125.77756	-261.56544	883.16116	163.39138	-166.95459	1445.32837	574.76223	-125.61677	1128.19099	590.70000	-193.15092	1149.39964	646.50436	-125.08158	1148.23769	659.43932	-265.08522	897.10831	625.50541	-258.54853	889.13925	671.60294	-212.13537	883.26889	668.27316	-168.28602	914.07501	196.84813	-174.05931	888.80707	559.81853	-209.82294	413.69530	310.56265	-138.02298	440.42797	263.00016	-151.58134	439.00196	386.65257	-236.68604	438.16833	544.06677	-134.05900	472.24129	523.82629	-232.42069	440.88428	450.40394	-154.78755	172.85807	328.21072	-136.96876	178.61053	392.58904	-77.40214	169.67373	329.13536	-127.47619	166.42050	524.93256	-80.43169	179.37323	461.85249	-158.97320	174.12941	459.79839	-962.48032	1031.36917	490.56763	-959.37798	1038.48297	650.43625	-1121.95251	1040.96947	658.23593	-1086.58096	1044.13918	477.16961	-1024.32198	1385.02136	581.39217	-1162.39449	1406.78391	567.19334	-984.93729	1598.92365	568.04146	-1127.54410	1565.69717	657.41280	-1128.66440	1545.51376	494.90925	-1097.01523	1375.84122	756.09222	-1122.56203	1083.05611	791.93848	-1152.76962	1071.02303	735.78171	-1080.97137	1072.60757	751.82411	-1084.29482	837.75909	825.68794	-1096.20361	854.31541	866.20743	-1059.71825	870.69443	869.37927	-1047.51816	1368.63266	400.62031	-1105.75867	1054.91821	402.87014	-1042.05368	1069.43810	370.49133	-1094.12170	1065.29297	355.60505	-981.09833	864.21333	309.73406	-1021.68640	847.29881	315.40100	-1021.02478	864.09981	272.30589	-1075.88448	877.35970	742.17422	-1017.53586	890.21278	405.52608	-1030.58792	451.67568	656.38306	-1141.23291	487.68337	693.30299	-1113.01086	486.31199	576.34510	-1008.40363	462.67349	517.49874	-1090.82771	481.42796	419.62143	-1116.12206	479.58420	543.59035	-1103.63884	166.95843	675.09224	-1131.73317	163.32567	607.08473	-1184.72900	154.68290	672.91153	-1065.85442	166.88549	459.21398	-1126.69052	169.71224	423.26618	-1125.84862	173.53176	512.81162 
115	26.400	-266.68478	1069.93378	514.65160	-308.07140	1072.13173	310.12472	-131.80107	1109.03038	239.63640	-76.23078	1098.61404	479.70699	-261.36545	1451.04477	389.47521	-145.72089	1501.86615	386.56063	-306.10020	1678.24417	374.42051	-172.72255	1630.38284	282.65547	-150.80567	1634.54147	430.13973	-200.19693	1422.68143	177.84803	-155.08947	1103.31543	103.50796	-133.74232	1086.49216	159.25751	-224.28915	1112.28165	136.20193	-247.09698	873.68126	99.99570	-282.93934	886.52489	125.93624	-262.84182	882.02713	163.83955	-166.18525	1445.73166	573.84640	-125.22717	1128.71658	591.26110	-192.83218	1150.23048	646.85844	-124.70323	1149.09676	659.87740	-264.40020	897.70027	627.31800	-257.89263	889.93057	673.45551	-211.38054	884.21509	670.05219	-169.94762	913.67668	196.30388	-171.69758	889.32686	559.50859	-209.84625	413.42587	311.86132	-139.17018	440.14870	263.05101	-151.45947	438.80188	387.12891	-236.22097	438.47950	545.51746	-134.00082	472.68978	526.50520	-231.86066	441.00929	451.77258	-155.26677	172.70046	328.73260	-136.86699	178.52270	393.24291	-77.90060	169.50348	329.11179	-126.36227	166.74080	526.86920	-78.66716	179.76311	464.66053	-157.50434	174.71060	461.52653	-962.75795	1031.47026	490.36472	-959.32716	1038.64334	650.25536	-1121.81808	1041.05507	658.33748	-1086.94275	1044.20685	477.26563	-1024.02580	1385.08652	581.67984	-1162.25456	1406.79703	567.00043	-985.32181	1599.01657	569.66022	-1129.26506	1565.56519	656.80199	-1127.75551	1545.48492	494.40750	-1095.95573	1377.10693	755.90378	-1122.34947	1084.93034	795.12611	-1152.14676	1072.29477	738.93402	-1080.48714	1073.82133	755.36522	-1084.21532	839.90761	831.62125	-1097.28729	856.76346	871.83601	-1060.90698	873.26172	875.74821	-1047.62444	1369.39194	400.84053	-1106.22284	1055.68932	400.62634	-1043.06992	1070.87708	367.26479	-1095.40558	1066.79108	353.25687	-981.72554	867.34474	302.06991	-1021.73027	849.79454	308.89271	-1023.05984	867.10655	265.93803	-1075.61081	877.34383	742.23053	-1017.76802	890.25391	405.51807	-1030.35004	451.64711	656.38306	-1140.96001	487.68982	693.39493	-1112.84691	486.33266	576.41354	-1007.64267	462.78111	517.10686	-1090.73486	481.48392	419.69959	-1115.98465	479.59568	543.62377	-1103.51120	166.88604	675.42542	-1131.74049	163.32502	607.12872	-1184.62601	154.65986	673.01147	-1065.83794	166.89968	459.21478	-1126.67854	169.74083	423.27522	-1125.81017	173.53092	512.84111 
116	26.417	-265.50852	1070.14183	515.15644	-308.56558	1072.04971	310.81142	-133.05606	1108.62747	238.52737	-74.75324	1098.66959	478.10547	-261.15335	1450.90897	389.11964	-145.61035	1501.84219	385.56057	-306.19242	1677.91580	373.50468	-173.20202	1630.23346	281.27697	-150.56028	1634.90829	428.59013	-200.91532	1422.15790	177.26753	-156.18927	1102.39792	104.33680	-135.09516	1085.76157	160.28103	-225.57154	1111.59035	136.65341	-247.91924	872.73766	100.69225	-283.83137	885.56404	126.53876	-263.84039	881.15005	164.37096	-165.38267	1446.25824	572.91077	-124.74899	1129.26430	591.62544	-192.24472	1151.02051	647.43843	-124.16151	1149.94469	660.27420	-263.94226	898.38242	629.39384	-257.32635	890.86250	675.57823	-210.86338	885.09384	672.34116	-171.49433	913.39043	195.91520	-169.60253	889.68224	559.10912	-210.20252	413.30666	312.39191	-139.94177	439.94591	262.94796	-151.31627	438.71513	387.14432	-235.60165	438.77090	547.65980	-132.88391	473.09109	529.22466	-230.60541	441.02013	454.03591	-155.60507	172.57111	329.08703	-137.06560	178.38749	393.35560	-78.18321	169.38265	328.98006	-125.65888	167.00039	529.13074	-76.91636	180.15167	467.56546	-156.27851	175.18312	463.39909	-963.04848	1031.63101	490.09357	-959.10667	1039.06982	649.92935	-1121.70876	1041.19064	658.53439	-1087.13760	1044.26025	477.37694	-1023.74290	1385.24933	581.99951	-1162.03598	1406.83701	566.75426	-985.81398	1599.14749	571.22581	-1130.86533	1565.24338	656.27975	-1126.90430	1545.62866	493.80753	-1095.01541	1378.21564	755.80116	-1121.79237	1086.70998	798.06465	-1151.40419	1073.32840	741.82953	-1079.80003	1075.04333	758.87650	-1084.31908	842.04544	837.46811	-1098.42087	859.14078	877.38907	-1062.24594	875.70152	882.04941	-1047.66830	1370.00702	401.10909	-1106.65199	1056.35330	398.33614	-1044.03076	1072.19498	364.17927	-1096.65344	1068.14087	350.97267	-982.49191	870.28748	294.70530	-1021.73943	852.31400	302.28006	-1024.57092	870.04745	259.71085	-1075.33157	877.33109	742.32132	-1018.06717	890.32188	405.50659	-1030.16235	451.65691	656.38245	-1140.69504	487.68353	693.48167	-1112.69577	486.38161	576.50379	-1007.59232	462.83230	517.10217	-1090.73776	481.50719	419.78065	-1115.87563	479.58717	543.71197	-1103.35678	166.91137	675.42557	-1131.59653	163.43681	607.21497	-1184.78149	154.85234	673.00522	-1065.82237	166.88362	459.19567	-1126.69350	169.76847	423.33103	-1125.74951	173.55206	512.87884 
117	26.433	-264.10709	1070.36667	515.66532	-309.16874	1072.02850	311.59073	-134.70095	1108.46855	237.93079	-73.62318	1098.67546	476.57764	-260.92562	1450.74203	388.85605	-145.58921	1501.89270	384.69727	-306.25029	1677.69684	372.99191	-173.61904	1630.04745	280.31324	-150.24102	1635.15701	427.44400	-201.75642	1421.89987	176.70195	-157.31936	1101.69052	105.26744	-136.43782	1085.26443	161.36606	-226.92631	1111.04836	137.13463	-248.67247	871.92749	101.83151	-284.83503	884.72359	127.50190	-265.15440	880.40497	165.50438	-164.26624	1446.65604	572.08641	-124.32915	1129.53873	592.16164	-191.64942	1151.81824	647.94228	-123.60452	1150.61554	660.66086	-263.46201	898.97308	631.61842	-256.76268	891.77620	677.89276	-210.27647	886.04179	674.51576	-173.21503	913.17612	195.64152	-167.60166	890.16502	558.73199	-210.25509	413.23685	312.68646	-140.34845	439.82098	262.84067	-150.83878	438.69202	387.03953	-235.01585	439.13418	550.45795	-132.15940	473.32596	532.17865	-229.33208	441.07655	456.93291	-155.76427	172.49155	329.30786	-136.96859	178.35350	393.42884	-78.39004	169.27589	328.85765	-124.80208	167.27942	531.24100	-75.73421	180.65290	470.11616	-155.28636	175.74892	465.50068	-963.27644	1031.76109	489.85497	-958.92960	1039.41498	649.63623	-1121.40663	1041.30165	658.66524	-1087.09343	1044.23820	477.51175	-1023.40706	1385.42114	582.30526	-1161.81816	1406.87012	566.45805	-986.17447	1599.36707	573.25535	-1132.57057	1564.97803	655.82115	-1126.13350	1545.79376	493.38764	-1094.14825	1379.22913	755.61348	-1121.43051	1088.31108	800.98679	-1150.44289	1074.30191	744.63524	-1078.55400	1076.23672	762.51808	-1084.58092	843.99940	843.38028	-1099.58748	861.51871	882.87384	-1063.53546	878.05077	888.15186	-1047.61459	1370.50766	401.24821	-1107.00317	1056.90224	396.06468	-1044.74358	1073.35609	361.24599	-1097.62108	1069.35326	348.68000	-983.02933	873.18230	287.74019	-1021.85921	854.76807	295.96008	-1026.01334	872.99034	253.68002	-1075.05516	877.30988	742.36755	-1018.60283	890.32120	405.58105	-1029.98703	451.63731	656.33629	-1140.46402	487.69470	693.55309	-1112.53220	486.38851	576.55933	-1007.52716	462.87083	517.07355	-1090.77400	481.51222	419.81255	-1115.77751	479.59179	543.77621	-1103.26729	166.92007	675.43167	-1131.55167	163.45926	607.23312	-1184.72366	154.88018	673.03902	-1065.79597	166.88307	459.21375	-1126.69609	169.79065	423.34301	-1125.68558	173.53399	512.89577 
118	26.450	-262.47749	1070.54260	516.13747	-309.67121	1072.00020	312.42161	-135.72459	1108.27255	236.76304	-72.58008	1098.86963	475.13325	-260.79235	1450.65216	388.69030	-145.41116	1501.97433	383.71532	-306.25500	1677.58224	372.93686	-173.94920	1630.12039	279.65855	-149.93054	1635.25299	426.57341	-202.94744	1421.74850	176.06070	-158.42597	1101.19476	106.06247	-137.53100	1084.98764	162.18622	-228.05298	1110.61913	137.89404	-249.55347	871.35765	103.32183	-285.71518	884.23546	128.83547	-266.28448	880.08049	167.05338	-162.91239	1446.87943	571.28349	-123.79709	1129.70360	592.47829	-190.69391	1152.49916	648.53867	-122.58385	1151.19385	660.84961	-263.03087	899.50745	634.12174	-256.21006	892.71606	680.36430	-209.70255	886.96411	676.90010	-174.71022	912.95654	195.48674	-165.69502	890.57991	558.61454	-210.08623	413.20274	313.05105	-140.49441	439.70634	262.75814	-150.12018	438.69186	386.98215	-234.05418	439.68945	553.46836	-131.45831	473.60985	534.29653	-229.19592	441.23035	459.90341	-155.87091	172.41734	329.53609	-136.63321	178.30610	393.60344	-78.49268	169.12630	328.78258	-123.45061	167.92931	533.04092	-75.08761	181.30497	471.55746	-154.56486	176.15128	467.47002	-963.48633	1031.87302	489.53827	-958.80829	1039.43031	649.49791	-1121.18156	1041.41754	658.91617	-1087.38449	1044.52682	477.74902	-1023.21266	1385.57022	582.69913	-1161.64635	1406.92123	566.24352	-986.51550	1599.53751	574.75170	-1134.03427	1564.57443	655.57495	-1125.51613	1545.91629	493.07339	-1093.36464	1380.19058	755.34996	-1120.92941	1089.92470	803.67821	-1149.14474	1075.19379	747.20299	-1078.12813	1077.31209	765.55237	-1084.98917	845.95726	848.74649	-1100.64064	863.71819	887.98126	-1064.59335	880.30403	893.80592	-1047.53326	1371.01028	401.37932	-1107.47169	1057.50977	393.81020	-1045.42122	1074.47998	358.51925	-1098.50380	1070.56808	346.50215	-983.43735	875.98618	281.29997	-1022.02293	857.15775	290.10408	-1027.16454	875.85663	248.08563	-1074.74922	877.28149	742.44331	-1018.98132	890.32967	405.56438	-1029.85695	451.63937	656.30989	-1140.29045	487.68661	693.54233	-1112.41402	486.37016	576.55968	-1007.48917	462.91004	517.02816	-1090.85701	481.51142	419.85729	-1115.69267	479.56673	543.85517	-1103.22823	166.92678	675.41405	-1131.51260	163.45940	607.23663	-1184.67743	154.90788	673.06107	-1065.83908	166.87843	459.13982	-1126.74782	169.77869	423.39314	-1125.63187	173.51891	512.92480 
